<svg width="227" height="69" viewBox="0 0 227 69" fill="none" xmlns="http://www.w3.org/2000/svg">
<path d="M58.3211 1.4882L58.9504 0.71107L58.3896 0.25689L57.7818 0.646069L58.3211 1.4882ZM139.821 67.4883L139.192 68.2654L139.634 68.6231L140.167 68.4266L139.821 67.4883ZM226.229 36.4073C226.461 35.9059 226.242 35.3117 225.74 35.0803L217.569 31.3088C217.067 31.0773 216.473 31.2962 216.242 31.7977C216.01 32.2991 216.229 32.8932 216.731 33.1247L223.994 36.4771L220.642 43.7408C220.41 44.2423 220.629 44.8364 221.131 45.0678C221.632 45.2993 222.226 45.0804 222.458 44.5789L226.229 36.4073ZM1.86059 38.8304L58.8604 2.33034L57.7818 0.646069L0.782058 37.1461L1.86059 38.8304ZM57.6918 2.26534L139.192 68.2654L140.451 66.7111L58.9504 0.71107L57.6918 2.26534ZM140.167 68.4266L225.667 36.9266L224.976 35.0499L139.476 66.5499L140.167 68.4266Z" fill="black"/>
</svg>
