<svg width="29" height="28" viewBox="0 0 29 28" fill="none" xmlns="http://www.w3.org/2000/svg">
<path d="M12.6849 0C5.67482 0 0 5.46143 0 12.2271C0 18.9927 5.75827 24.5357 12.7683 24.5357C19.7784 24.5357 18.6101 23.476 20.7799 21.8457L26.705 27.6332C27.2058 28.1223 28.1237 28.1223 28.6245 27.6332C29.1252 27.1441 29.1252 26.2475 28.6245 25.7584L22.6993 19.9709C24.4518 17.8515 25.5367 15.1616 25.5367 12.2271C25.4532 5.46143 19.7784 0 12.6849 0ZM2.6705 12.2271C2.6705 6.92868 7.17698 2.60844 12.6849 2.60844C18.1928 2.60844 22.6993 6.92868 22.6993 12.2271C22.6993 17.5255 18.1928 21.8457 12.6849 21.8457C7.17698 21.8457 2.6705 17.607 2.6705 12.2271Z" fill="#CCCCCC"/>
</svg>
